<svg width="100" height="44" viewBox="0 0 100 44" fill="none" xmlns="http://www.w3.org/2000/svg">
<path d="M0 27.1939V0.38269H23.4392C25.4821 0.38269 27.0776 0.676844 28.2258 1.2645C29.3752 1.85281 30.1924 2.66351 30.6773 3.69789C31.1634 4.73099 31.4065 5.92376 31.4065 7.27687C31.4065 9.09092 30.7038 10.7757 29.299 12.3324C30.4743 13.1237 31.4259 14.1077 32.1539 15.283C32.8812 16.457 33.2451 17.7979 33.2451 19.3042C33.2451 20.7853 32.938 22.1196 32.3245 23.3072C31.7123 24.4936 30.7678 25.4381 29.4903 26.1415C28.2141 26.8435 26.5552 27.1939 24.5123 27.1939H0ZM8.99915 10.1499H19.8007C20.2352 10.1499 20.6496 10.1253 21.0446 10.0749C21.4409 10.0232 21.7725 9.86412 22.0402 9.59647C22.3091 9.32753 22.4436 8.88663 22.4436 8.27246C22.4436 7.63502 22.3091 7.1883 22.0402 6.93293C21.7725 6.67821 21.4409 6.52564 21.0446 6.47522C20.6496 6.4235 20.2352 6.39764 19.8007 6.39764H8.99915V10.1499ZM8.99915 20.5299H21.6393C22.0738 20.5299 22.4882 20.5054 22.8832 20.4549C23.2795 20.4032 23.6111 20.25 23.8788 19.9946C24.1477 19.738 24.2822 19.3035 24.2822 18.6913C24.2822 18.0539 24.1477 17.6071 23.8788 17.3518C23.6111 17.0951 23.2795 16.9419 22.8832 16.8915C22.4882 16.8398 22.0738 16.8139 21.6393 16.8139H8.99915V20.5299Z" fill="#004AAD"/>
<path d="M34.5842 27.194V22.9427C34.5842 21.4622 34.9728 20.1983 35.7505 19.1516C36.5295 18.1037 37.5568 17.2225 38.833 16.5088C40.1104 15.7938 41.5081 15.1938 43.0274 14.709C44.5479 14.2228 46.0672 13.7955 47.5864 13.4263C49.1051 13.0559 50.5021 12.6919 51.7783 12.335C53.0558 11.9769 54.0837 11.5741 54.8633 11.1274C55.6424 10.6813 56.0322 10.1383 56.0322 9.49824C56.0322 8.75865 55.674 8.25568 54.959 7.98804C54.2453 7.7191 52.8411 7.58463 50.7465 7.58463C49.3171 7.58463 48.1043 7.64863 47.108 7.77599C46.1112 7.90399 45.3509 8.20397 44.8272 8.6759C44.3049 9.14849 44.0437 9.89518 44.0437 10.9153H35.0445C35.0445 8.64358 35.4143 6.79268 36.1539 5.36329C36.8948 3.9326 37.9486 2.8284 39.314 2.05067C40.6793 1.27165 42.3007 0.735706 44.1781 0.4422C46.0556 0.1474 48.1172 0 50.3638 0C53.4527 0 56.0826 0.236616 58.2535 0.708554C60.4238 1.18114 62.0898 2.02998 63.2522 3.25573C64.4139 4.48147 64.9951 6.20566 64.9951 8.42765C64.9951 9.75554 64.7197 10.8727 64.1702 11.7791C63.622 12.6841 62.894 13.4367 61.9877 14.0366C61.0806 14.6365 60.065 15.135 58.9414 15.5313C57.8191 15.9282 56.6826 16.267 55.5331 16.5476C54.3849 16.8269 53.2995 17.101 52.2774 17.3699C51.2566 17.6376 50.3754 17.9433 49.6345 18.2879C48.8949 18.6332 48.3971 19.0734 48.1424 19.6094H64.6124V27.194H34.5842Z" fill="#004AAD"/>
<path d="M66.7169 27.1939V0.38269H90.156C92.1989 0.38269 93.7945 0.676844 94.9426 1.2645C96.0921 1.85281 96.9093 2.66351 97.3941 3.69789C97.8803 4.73099 98.1234 5.92376 98.1234 7.27687C98.1234 9.09092 97.4206 10.7757 96.0158 12.3324C97.1911 13.1237 98.1428 14.1077 98.8707 15.283C99.598 16.457 99.962 17.7979 99.962 19.3042C99.962 20.7853 99.6549 22.1196 99.0414 23.3072C98.4292 24.4936 97.4846 25.4381 96.2072 26.1415C94.931 26.8435 93.2721 27.1939 91.2292 27.1939H66.7169ZM75.716 10.1499H86.5176C86.952 10.1499 87.3664 10.1253 87.7614 10.0749C88.1577 10.0232 88.4894 9.86412 88.757 9.59647C89.026 9.32753 89.1604 8.88663 89.1604 8.27246C89.1604 7.63502 89.026 7.1883 88.757 6.93293C88.4894 6.67821 88.1577 6.52564 87.7614 6.47522C87.3664 6.4235 86.952 6.39764 86.5176 6.39764H75.716V10.1499ZM75.716 20.5299H88.3562C88.7906 20.5299 89.205 20.5054 89.6 20.4549C89.9963 20.4032 90.328 20.25 90.5956 19.9946C90.8646 19.738 90.999 19.3035 90.999 18.6913C90.999 18.0539 90.8646 17.6071 90.5956 17.3518C90.328 17.0951 89.9963 16.9419 89.6 16.8915C89.205 16.8398 88.7906 16.8139 88.3562 16.8139H75.716V20.5299Z" fill="#004AAD"/>
<path d="M5.35836 34.6801C6.21302 34.6801 6.97782 34.8663 7.65211 35.2387C8.32575 35.6111 8.85522 36.138 9.23989 36.8187C9.6239 37.4982 9.81656 38.2817 9.81656 39.1694C9.81656 40.0576 9.6239 40.8444 9.23989 41.5304C8.85522 42.215 8.32575 42.7445 7.65211 43.1181C6.97782 43.4905 6.21302 43.6767 5.35836 43.6767C4.75454 43.6767 4.20373 43.572 3.70593 43.3638C3.20748 43.1556 2.78791 42.8427 2.44656 42.4251V43.5603H0.491577V31.3572H2.54742V35.8464C2.89717 35.4637 3.31028 35.1741 3.78609 34.9775C4.2632 34.7797 4.78751 34.6801 5.35836 34.6801ZM5.12821 41.9157C5.8846 41.9157 6.50717 41.6642 6.99527 41.1606C7.48273 40.6557 7.7271 39.9917 7.7271 39.1694C7.7271 38.347 7.48273 37.6844 6.99527 37.1808C6.50717 36.6759 5.8846 36.4231 5.12821 36.4231C4.63493 36.4231 4.1908 36.5362 3.79644 36.7618C3.40143 36.9862 3.08853 37.3068 2.85773 37.7238C2.62823 38.1395 2.5138 38.6211 2.5138 39.1694C2.5138 39.7176 2.62823 40.2005 2.85773 40.6175C3.08853 41.0332 3.40143 41.3539 3.79644 41.5795C4.1908 41.8038 4.63493 41.9157 5.12821 41.9157Z" fill="black"/>
<path d="M11.7748 34.7784H13.8306V43.5604H11.7748V34.7784ZM12.8092 33.3303C12.4368 33.3303 12.1239 33.2133 11.8705 32.9786C11.6183 32.7426 11.4929 32.4485 11.4929 32.0968C11.4929 31.747 11.6183 31.4542 11.8705 31.2176C12.1239 30.9816 12.4368 30.8633 12.8092 30.8633C13.1816 30.8633 13.4932 30.9764 13.7453 31.202C13.9987 31.4264 14.1254 31.7082 14.1254 32.0477C14.1254 32.4097 14.0019 32.7142 13.7556 32.9605C13.5087 33.2075 13.1932 33.3303 12.8092 33.3303Z" fill="black"/>
<path d="M18.4832 36.061C19.076 35.1404 20.1182 34.6801 21.6096 34.6801V36.635C21.4338 36.6027 21.2741 36.5859 21.1312 36.5859C20.3309 36.5859 19.7063 36.8199 19.2564 37.2867C18.8077 37.7522 18.584 38.4239 18.584 39.3012V43.5602H16.5282V34.7783H18.4832V36.061Z" fill="black"/>
<path d="M26.7903 34.6801C28.0833 34.6801 29.0717 34.9897 29.7564 35.6084C30.4423 36.2278 30.7856 37.1619 30.7856 38.4116V43.5602H28.8461V42.4922C28.594 42.875 28.2345 43.1685 27.7678 43.3715C27.3023 43.5745 26.7399 43.6766 26.0817 43.6766C25.4249 43.6766 24.8489 43.5641 24.3543 43.3404C23.861 43.1148 23.4803 42.8019 23.2113 42.4017C22.9437 42.0003 22.8105 41.5477 22.8105 41.0441C22.8105 40.2547 23.1033 39.6218 23.6897 39.146C24.2754 38.6689 25.1999 38.4297 26.4619 38.4297H28.7298V38.2978C28.7298 37.6843 28.5461 37.213 28.1789 36.8833C27.8117 36.5542 27.2667 36.3894 26.5446 36.3894C26.0494 36.3894 25.5632 36.4663 25.0861 36.6195C24.6103 36.7734 24.2076 36.9867 23.8785 37.2608L23.0743 35.7636C23.5346 35.4138 24.088 35.1455 24.7344 34.9593C25.3809 34.7731 26.0662 34.6801 26.7903 34.6801ZM26.511 42.1793C27.0263 42.1793 27.484 42.0617 27.8841 41.8251C28.2837 41.5891 28.5655 41.2523 28.7298 40.814V39.7951H26.6093C25.4249 39.7951 24.8327 40.1843 24.8327 40.9614C24.8327 41.3337 24.9808 41.6305 25.2775 41.8509C25.5736 42.0701 25.9848 42.1793 26.511 42.1793Z" fill="black"/>
<path d="M38.698 43.0845C38.4562 43.281 38.1627 43.4297 37.8162 43.5293C37.471 43.6275 37.1077 43.6767 36.7249 43.6767C35.7591 43.6767 35.0137 43.4245 34.4881 42.919C33.9618 42.4141 33.6994 41.6796 33.6994 40.7157V36.4877H32.2512V34.843H33.6994V32.8363H35.7552V34.843H38.1058V36.4877H35.7552V40.6666C35.7552 41.0946 35.8586 41.4204 36.0655 41.6441C36.2737 41.8684 36.5756 41.9803 36.9706 41.9803C37.4309 41.9803 37.8143 41.8607 38.1214 41.6208L38.698 43.0845Z" fill="black"/>
<path d="M49.8004 34.6801C50.655 34.6801 51.4198 34.8663 52.0941 35.2387C52.7678 35.6111 53.2972 36.138 53.6819 36.8187C54.0659 37.4982 54.2586 38.2817 54.2586 39.1694C54.2586 40.0576 54.0659 40.8444 53.6819 41.5304C53.2972 42.215 52.7678 42.7445 52.0941 43.1181C51.4198 43.4905 50.655 43.6767 49.8004 43.6767C49.1966 43.6767 48.6457 43.572 48.1479 43.3638C47.6495 43.1556 47.2299 42.8427 46.8886 42.4251V43.5603H44.9336V31.3572H46.9894V35.8464C47.3392 35.4637 47.7523 35.1741 48.2281 34.9775C48.7052 34.7797 49.2295 34.6801 49.8004 34.6801ZM49.5702 41.9157C50.3266 41.9157 50.9492 41.6642 51.4373 41.1606C51.9247 40.6557 52.1691 39.9917 52.1691 39.1694C52.1691 38.347 51.9247 37.6844 51.4373 37.1808C50.9492 36.6759 50.3266 36.4231 49.5702 36.4231C49.077 36.4231 48.6328 36.5362 48.2385 36.7618C47.8434 36.9862 47.5305 37.3068 47.2997 37.7238C47.0702 38.1395 46.9558 38.6211 46.9558 39.1694C46.9558 39.7176 47.0702 40.2005 47.2997 40.6175C47.5305 41.0332 47.8434 41.3539 48.2385 41.5795C48.6328 41.8038 49.077 41.9157 49.5702 41.9157Z" fill="black"/>
<path d="M59.5708 34.6801C60.8638 34.6801 61.8523 34.9897 62.5369 35.6084C63.2228 36.2278 63.5661 37.1619 63.5661 38.4116V43.5602H61.6266V42.4922C61.3745 42.875 61.0151 43.1685 60.5483 43.3715C60.0828 43.5745 59.5204 43.6766 58.8622 43.6766C58.2054 43.6766 57.6294 43.5641 57.1348 43.3404C56.6416 43.1148 56.2608 42.8019 55.9918 42.4017C55.7242 42.0003 55.591 41.5477 55.591 41.0441C55.591 40.2547 55.8839 39.6218 56.4702 39.146C57.056 38.6689 57.9804 38.4297 59.2424 38.4297H61.5103V38.2978C61.5103 37.6843 61.3267 37.213 60.9595 36.8833C60.5923 36.5542 60.0473 36.3894 59.3251 36.3894C58.8299 36.3894 58.3438 36.4663 57.8666 36.6195C57.3908 36.7734 56.9881 36.9867 56.659 37.2608L55.8548 35.7636C56.3151 35.4138 56.8685 35.1455 57.515 34.9593C58.1614 34.7731 58.8467 34.6801 59.5708 34.6801ZM59.2915 42.1793C59.8068 42.1793 60.2645 42.0617 60.6647 41.8251C61.0642 41.5891 61.3461 41.2523 61.5103 40.814V39.7951H59.3898C58.2054 39.7951 57.6132 40.1843 57.6132 40.9614C57.6132 41.3337 57.7613 41.6305 58.058 41.8509C58.3541 42.0701 58.7653 42.1793 59.2915 42.1793Z" fill="black"/>
<path d="M73.0586 41.9156V43.5602H65.4766V42.2621L70.2942 36.423H65.5748V34.7783H72.9267V36.0765L68.091 41.9156H73.0586Z" fill="black"/>
<path d="M78.3049 34.6801C79.5978 34.6801 80.5863 34.9897 81.271 35.6084C81.9569 36.2278 82.3002 37.1619 82.3002 38.4116V43.5602H80.3607V42.4922C80.1086 42.875 79.7491 43.1685 79.2824 43.3715C78.8169 43.5745 78.2544 43.6766 77.5963 43.6766C76.9395 43.6766 76.3635 43.5641 75.8689 43.3404C75.3756 43.1148 74.9948 42.8019 74.7259 42.4017C74.4583 42.0003 74.3251 41.5477 74.3251 41.0441C74.3251 40.2547 74.6179 39.6218 75.2043 39.146C75.79 38.6689 76.7145 38.4297 77.9765 38.4297H80.2443V38.2978C80.2443 37.6843 80.0607 37.213 79.6935 36.8833C79.3263 36.5542 78.7813 36.3894 78.0592 36.3894C77.564 36.3894 77.0778 36.4663 76.6007 36.6195C76.1249 36.7734 75.7221 36.9867 75.3931 37.2608L74.5888 35.7636C75.0491 35.4138 75.6025 35.1455 76.249 34.9593C76.8955 34.7731 77.5808 34.6801 78.3049 34.6801ZM78.0256 42.1793C78.5408 42.1793 78.9986 42.0617 79.3987 41.8251C79.7983 41.5891 80.0801 41.2523 80.2443 40.814V39.7951H78.1239C76.9395 39.7951 76.3473 40.1843 76.3473 40.9614C76.3473 41.3337 76.4953 41.6305 76.7921 41.8509C77.0882 42.0701 77.4993 42.1793 78.0256 42.1793Z" fill="black"/>
<path d="M88.2888 34.6801C89.5817 34.6801 90.5702 34.9897 91.2549 35.6084C91.9408 36.2278 92.2841 37.1619 92.2841 38.4116V43.5602H90.3446V42.4922C90.0925 42.875 89.733 43.1685 89.2662 43.3715C88.8008 43.5745 88.2383 43.6766 87.5802 43.6766C86.9234 43.6766 86.3473 43.5641 85.8528 43.3404C85.3595 43.1148 84.9787 42.8019 84.7098 42.4017C84.4421 42.0003 84.309 41.5477 84.309 41.0441C84.309 40.2547 84.6018 39.6218 85.1882 39.146C85.7739 38.6689 86.6984 38.4297 87.9603 38.4297H90.2282V38.2978C90.2282 37.6843 90.0446 37.213 89.6774 36.8833C89.3102 36.5542 88.7652 36.3894 88.0431 36.3894C87.5479 36.3894 87.0617 36.4663 86.5846 36.6195C86.1088 36.7734 85.706 36.9867 85.377 37.2608L84.5727 35.7636C85.033 35.4138 85.5864 35.1455 86.2329 34.9593C86.8794 34.7731 87.5647 34.6801 88.2888 34.6801ZM88.0095 42.1793C88.5247 42.1793 88.9824 42.0617 89.3826 41.8251C89.7821 41.5891 90.064 41.2523 90.2282 40.814V39.7951H88.1077C86.9234 39.7951 86.3312 40.1843 86.3312 40.9614C86.3312 41.3337 86.4792 41.6305 86.776 41.8509C87.0721 42.0701 87.4832 42.1793 88.0095 42.1793Z" fill="black"/>
<path d="M96.8736 36.061C97.4664 35.1404 98.5085 34.6801 100 34.6801V36.635C99.8241 36.6027 99.6645 36.5859 99.5216 36.5859C98.7212 36.5859 98.0967 36.8199 97.6468 37.2867C97.1981 37.7522 96.9744 38.4239 96.9744 39.3012V43.5602H94.9186V34.7783H96.8736V36.061Z" fill="black"/>
</svg>
